# xmcd
#
# Track frame offsets:
#	182
#	15482
#	40920
#	75180
#	89512
#	115390
#	132037
#	170342
#	190627
#	210827
#
# Disc length: 3088 seconds
#
# Revision: 0
# Processed by: cddbd v1.5.2PL0 Copyright (c) Steve Scherf et al.
# Submitted via: EasyCDDAExtractor 2010.6.0.0
#
DISCID=6c0c0e0a
DTITLE=Parliament - Parliament's Greatest Hits
DYEAR=1984
DGENRE=Funk
TTITLE0=Up For The Down Stroke
TTITLE1=Chocolate City
TTITLE2=P. Funk (Wants To Get Funked Up)
TTITLE3=Mothership Connection (Star Child)
TTITLE4=Give Up The Funk (Tear The Roof Off The Sucker)
TTITLE5=Do That Stuff
TTITLE6=Bop Gun (Endangered Species)
TTITLE7=Flash Light
TTITLE8=Aqua Boogie (A Psychoalphadiscobetabioaquadoloop)
TTITLE9=Theme From The Black Hole
EXTD=
EXTT0=
EXTT1=
EXTT2=
EXTT3=
EXTT4=
EXTT5=
EXTT6=
EXTT7=
EXTT8=
EXTT9=
PLAYORDER=
